<?xml version="1.0" encoding="UTF-8"?>
<svg width="162.86mm" height="25mm" version="1.1" viewBox="0 0 162.86 25" xmlns="http://www.w3.org/2000/svg">
 <g transform="translate(-11.875 -47.973)">
  <rect x="12.12" y="48.218" width="24.51" height="24.51" ry=".32024" fill="#74999b" stroke="#fff" stroke-width=".4902"/>
 </g>
 <g transform="translate(-11.875 -47.973)">
  <g transform="matrix(.12621 0 0 .12044 11.59 46.02)" stroke-width=".46754" aria-label="K">
   <path d="m42.02 53.859v130.91h30.109v-33.102l17.58-18.328 41.891 51.43h35.346l-57.412-72.562 54.234-58.348h-33.664l-57.975 61.152v-61.152z" fill="#fff" stroke-width=".46754"/>
  </g>
 </g>
 <g transform="translate(-11.875 -47.973)">
  <path transform="translate(3.8867 .000406)" d="m104.39 51.934-7.2246 15.805h1.7383l1.8965-4.2227h8.8047l1.8965 4.2227h1.7617l-7.2246-15.805zm10.164 0v15.805h6.4356c1.6708 0 3.1464-0.33186 4.4258-0.99414 1.2794-0.67733 2.2711-1.6097 2.9785-2.7988 0.70744-1.2041 1.0625-2.5741 1.0625-4.1094 0-1.5353-0.35506-2.8988-1.0625-4.0879-0.70744-1.2041-1.6991-2.1365-2.9785-2.7988-1.2794-0.67733-2.755-1.0156-4.4258-1.0156zm17.33 0v15.805h1.6035v-12.576l6.209 10.566h0.79101l6.209-10.635v12.645h1.6016v-15.805h-1.377l-6.7949 11.717-6.8633-11.717zm20.242 0v15.805h1.6699v-15.805zm5.5117 0v15.805h1.6699v-12.824l10.16 12.824h1.377v-15.805h-1.6484v12.824l-10.182-12.824zm-41.412 1.4453h4.6738c1.3848 0 2.5962 0.27706 3.6348 0.83398 1.0386 0.54187 1.844 1.3029 2.416 2.2812 0.57197 0.96332 0.85743 2.0774 0.85743 3.3418 0 1.2644-0.28546 2.3849-0.85743 3.3633-0.57197 0.96332-1.3774 1.7243-2.416 2.2812-1.0386 0.54187-2.25 0.8125-3.6348 0.8125h-4.6738zm-11.023 0.29297 3.793 8.4883h-7.5859z" fill="#917c6f" stroke-width=".26458"/>
 </g>
 <g transform="translate(-11.875 -47.973)">
  <g transform="translate(4.0005)" stroke-width=".26458" aria-label="KDC ">
   <path d="m84.139 51.934c-1.6256 0-3.0928 0.35311-4.4023 1.0605-1.2945 0.69239-2.3177 1.6628-3.0703 2.9121-0.73754 1.2343-1.1074 2.6338-1.1074 4.1992s0.36988 2.9734 1.1074 4.2227c0.75259 1.2343 1.7759 2.2047 3.0703 2.9121 1.3095 0.69239 2.7703 1.0391 4.3809 1.0391 1.3697 0 2.6108-0.241 3.7246-0.72266 1.1138-0.48166 2.0462-1.1814 2.7988-2.0996l-2.3477-2.168c-1.0687 1.2493-2.3922 1.875-3.9727 1.875-0.97837 1e-6 -1.8515-0.21136-2.6191-0.63281-0.76764-0.4365-1.3701-1.039-1.8066-1.8066-0.42145-0.76764-0.63281-1.6408-0.63281-2.6191 0-0.97837 0.21136-1.8515 0.63281-2.6191 0.4365-0.76764 1.039-1.3618 1.8066-1.7832 0.76764-0.4365 1.6408-0.6543 2.6191-0.6543 1.5804 0 2.904 0.61731 3.9727 1.8516l2.3477-2.168c-0.75259-0.90311-1.685-1.5945-2.7988-2.0762-1.0988-0.48166-2.3334-0.72266-3.7031-0.72266zm-42.951 0.26953v15.805h3.6348v-3.9961l2.1211-2.2129 5.0586 6.209h4.2676l-6.9316-8.7598 6.5469-7.0449h-4.0645l-6.998 7.3828v-7.3828zm16.713 0v15.805h7.1797c1.7159 0 3.2276-0.32347 4.5371-0.9707 1.3246-0.66228 2.3478-1.5882 3.0703-2.7773 0.73754-1.1891 1.1074-2.5739 1.1074-4.1543s-0.36988-2.9652-1.1074-4.1543c-0.72249-1.1891-1.7457-2.1067-3.0703-2.7539-1.3095-0.66228-2.8212-0.99414-4.5371-0.99414zm3.6562 3.0039h3.3418c1.5804 0 2.8383 0.44397 3.7715 1.332 0.94827 0.87301 1.4219 2.0612 1.4219 3.5664s-0.47361 2.7018-1.4219 3.5898c-0.93322 0.87301-2.191 1.3105-3.7715 1.3105h-3.3418z" fill="#fff" stroke-width=".26458"/>
  </g>
 </g>
</svg>
